name E:\3-PhD\Data\MocapData\ElaboratedData\009\pre\dynamicElaborations\Run_baseline3\Run_baseline3.mot
datacolumns 37
datarows 7
range 3.43 3.433
endheader

time	    ground_force1_vx	    ground_force1_vy	    ground_force1_vz	    ground_force1_px	    ground_force1_py	    ground_force1_pz	    ground_force2_vx	    ground_force2_vy	    ground_force2_vz	    ground_force2_px	    ground_force2_py	    ground_force2_pz	    ground_force3_vx	    ground_force3_vy	    ground_force3_vz	    ground_force3_px	    ground_force3_py	    ground_force3_pz	    ground_force4_vx	    ground_force4_vy	    ground_force4_vz	    ground_force4_px	    ground_force4_py	    ground_force4_pz	    ground_torque1_x	    ground_torque1_y	    ground_torque1_z	    ground_torque2_x	    ground_torque2_y	    ground_torque2_z	    ground_torque3_x	    ground_torque3_y	    ground_torque3_z	    ground_torque4_x	    ground_torque4_y	    ground_torque4_z	
3.43	          0.00000000	          0.00000000	          0.00000000	          0.00000000	          0.00000000	          0.00000000	          0.00000000	          0.00000000	          0.00000000	          0.00000000	          0.00000000	          0.00000000	       -165.46835686	        324.12439944	         43.93236736	         -0.72356084	          0.00000000	          0.04974664	          0.00000000	          0.00000000	          0.00000000	          0.00000000	          0.00000000	          0.00000000	          0.00000000	          0.00000000	          0.00000000	          0.00000000	          0.00000000	          0.00000000	          0.00000000	          3.98670093	         -0.00000000	          0.00000000	          0.00000000	          0.00000000	
3.4305	          0.00000000	          0.00000000	          0.00000000	          0.00000000	          0.00000000	          0.00000000	          0.00000000	          0.00000000	          0.00000000	          0.00000000	          0.00000000	          0.00000000	       -170.36696315	        337.98996964	         47.98411072	         -0.72451609	          0.00000000	          0.04956408	          0.00000000	          0.00000000	          0.00000000	          0.00000000	          0.00000000	          0.00000000	          0.00000000	          0.00000000	          0.00000000	          0.00000000	          0.00000000	          0.00000000	          0.00000000	          4.23775153	         -0.00000000	          0.00000000	          0.00000000	          0.00000000	
3.431	          0.00000000	          0.00000000	          0.00000000	          0.00000000	          0.00000000	          0.00000000	          0.00000000	          0.00000000	          0.00000000	          0.00000000	          0.00000000	          0.00000000	       -175.27596310	        352.11256456	         52.19084750	         -0.72544548	          0.00000000	          0.04938645	          0.00000000	          0.00000000	          0.00000000	          0.00000000	          0.00000000	          0.00000000	          0.00000000	          0.00000000	          0.00000000	          0.00000000	          0.00000000	          0.00000000	          0.00000000	          4.49306171	         -0.00000000	          0.00000000	          0.00000000	          0.00000000	
3.4315	          0.00000000	          0.00000000	          0.00000000	          0.00000000	          0.00000000	          0.00000000	          0.00000000	          0.00000000	          0.00000000	          0.00000000	          0.00000000	          0.00000000	       -180.18845894	        366.48530873	         56.55465360	         -0.72635141	          0.00000000	          0.04921328	          0.00000000	          0.00000000	          0.00000000	          0.00000000	          0.00000000	          0.00000000	          0.00000000	          0.00000000	          0.00000000	          0.00000000	          0.00000000	          0.00000000	          0.00000000	          4.75251254	         -0.00000000	          0.00000000	          0.00000000	          0.00000000	
3.432	          0.00000000	          0.00000000	          0.00000000	          0.00000000	          0.00000000	          0.00000000	          0.00000000	          0.00000000	          0.00000000	          0.00000000	          0.00000000	          0.00000000	       -185.09744124	        381.10114541	         61.07733254	         -0.72723609	          0.00000000	          0.04904415	          0.00000000	          0.00000000	          0.00000000	          0.00000000	          0.00000000	          0.00000000	          0.00000000	          0.00000000	          0.00000000	          0.00000000	          0.00000000	          0.00000000	          0.00000000	          5.01596474	         -0.00000000	          0.00000000	          0.00000000	          0.00000000	
3.4325	          0.00000000	          0.00000000	          0.00000000	          0.00000000	          0.00000000	          0.00000000	          0.00000000	          0.00000000	          0.00000000	          0.00000000	          0.00000000	          0.00000000	       -189.99589601	        395.95299585	         65.76032934	         -0.72810153	          0.00000000	          0.04887866	          0.00000000	          0.00000000	          0.00000000	          0.00000000	          0.00000000	          0.00000000	          0.00000000	          0.00000000	          0.00000000	          0.00000000	          0.00000000	          0.00000000	          0.00000000	          5.28326300	         -0.00000000	          0.00000000	          0.00000000	          0.00000000	
3.433	          0.00000000	          0.00000000	          0.00000000	          0.00000000	          0.00000000	          0.00000000	          0.00000000	          0.00000000	          0.00000000	          0.00000000	          0.00000000	          0.00000000	       -194.87685727	        411.03392095	         70.60467934	         -0.72894958	          0.00000000	          0.04871647	          0.00000000	          0.00000000	          0.00000000	          0.00000000	          0.00000000	          0.00000000	          0.00000000	          0.00000000	          0.00000000	          0.00000000	          0.00000000	          0.00000000	          0.00000000	          5.55424107	         -0.00000000	          0.00000000	          0.00000000	          0.00000000	
